<svg width="961" height="715" viewBox="0 0 961 715" fill="none" xmlns="http://www.w3.org/2000/svg">
<path d="M0 0H960.143V715H0V0Z" fill="white" fill-opacity="0.01"/>
<path fill-rule="evenodd" clip-rule="evenodd" d="M583.039 463.858C581.532 485.804 551.54 497.215 533.349 501.897C536.995 480.367 541.704 458.049 538.774 436.214C537.81 429.022 536.544 421.869 535.185 414.741C534.682 412.105 534.164 409.473 533.626 406.843C533.496 406.204 532.441 403.406 532.777 402.768C533.378 401.628 538.467 401.807 539.763 401.857C543.104 401.984 546.383 402.822 549.44 404.148C555.865 406.934 561.278 411.729 565.738 417.023C576.256 429.505 584.176 447.309 583.039 463.858ZM548.316 314.674C530.904 324.912 509.931 330.405 490.072 333.083C459.819 337.163 428.93 332.467 399.353 325.959C392.091 324.361 384.844 322.639 377.689 320.618C377.366 341.43 383.263 361.222 394.78 378.579C404.302 392.929 416.728 404.922 427.59 418.215C437.701 430.588 445.857 444.547 446.262 460.879C446.431 467.695 445.866 473.931 440.118 478.348C434.343 482.787 426.541 484.433 419.474 485.444C401.777 487.976 383.241 486.608 365.655 483.82C362.24 483.279 358.832 482.662 355.462 481.891C351.635 481.017 350.294 479.986 347.099 482.838C340.203 488.992 337.039 498.222 335.477 507.051C332.55 523.588 333.543 542.878 337.762 559.193C341.828 574.909 361.014 583.62 375.227 587.418C418.1 598.874 465.401 583.053 498.298 554.888C499.014 554.274 499.726 553.652 500.421 553.012C502.757 557.843 505.309 562.589 508.097 567.177C510.037 570.369 512.079 573.577 514.526 576.419C515.409 577.444 516.446 578.83 517.654 579.502C519.902 580.752 522.188 579.833 524.733 579.394C543.509 576.157 562.241 571.9 580.095 565.195C607.237 555.003 631.58 538.212 644.444 511.688C650.943 498.29 654.331 483.61 655.971 468.888C657.852 451.985 658.259 434.706 653.468 418.231C644.69 388.039 622.292 363.564 597.765 344.686C582.588 333.004 565.903 322.448 548.316 314.674Z" fill="#0094FF"/>
<path fill-rule="evenodd" clip-rule="evenodd" d="M855.109 114.746C851.141 116.312 846.868 116.748 842.647 117.054C839.335 117.294 836.736 118.613 833.615 118.687C824.927 118.893 816.201 119.28 807.555 120.57C798.871 121.865 790.873 120.173 784.016 126.652C781.575 128.957 778.516 131.607 779.982 135.329C780.656 137.032 781.603 138.255 782.162 140.084C782.794 142.152 783.58 144.105 784.493 146.074C786.246 149.85 795.024 163.914 787.901 165.634C780.178 167.499 769.705 165.32 762.266 163.186C757.925 161.941 753.653 160.482 749.376 159.045C745.989 157.907 741.54 157.262 738.42 155.48C736.349 154.297 735.921 152.278 734.553 150.36C732.064 146.872 729.739 143.901 726.523 140.998C719.852 134.978 711.512 130.89 703.288 127.297C702.757 127.063 701.788 126.521 701.215 126.467C700.596 126.41 699.914 127.043 699.514 126.966C698.418 126.754 698.035 126.069 696.835 125.392C695.222 124.484 688.649 121.459 687.499 123.836C688.575 120.713 689.36 121.614 692.272 122.068C693.554 122.269 694.412 121.685 695.565 121.744C696.626 121.797 697.062 122.397 697.949 122.559C699.574 122.855 701.087 122.632 702.784 122.62C703.239 121.621 703.886 121.628 704.724 122.641C705.191 122.792 705.659 122.942 706.126 123.094C707.816 123.553 709.622 123.465 711.351 123.6C713.949 123.805 720.718 126.95 722.021 123.767C723.411 120.368 719.19 119.52 718.485 117.148C717.799 114.821 721.015 113.455 722.305 112.05C723.775 110.452 724.674 109.049 726.399 107.641C727.41 106.814 728.735 106.044 729.484 104.943C730.173 103.93 730.143 102.292 731.037 101.449C732.104 100.443 732.268 101.139 733.237 100.653C735.138 99.6978 734.299 99.7462 735.423 98.441C736.384 97.3256 737.094 97.3591 738.352 96.5045C740.194 95.2523 740.841 92.806 742.63 91.4606C743.939 90.4755 746.025 90.4772 747.173 89.4541C747.85 88.8515 747.641 87.8749 748.226 87.306C749.349 86.2128 750.118 86.6568 751.52 86.2964C753.884 85.6886 754.649 84.3912 756.389 82.8888C757.98 81.5171 758.989 81.523 760.979 80.9541C763.697 80.1776 765.455 78.1432 767.907 76.948C770.218 75.8237 772.603 75.0353 774.94 73.8375C776.627 72.9723 778.253 72.4354 779.794 71.5525C780.314 71.2546 780.359 70.1632 781.031 70.0154C781.801 69.845 782.417 71.117 783.238 71.1836C784.956 71.3237 786.911 69.4313 788.04 68.3356C788.531 67.8596 789.194 66.5723 789.826 66.3065C791.145 65.7494 791.933 66.8526 793.109 66.4171C794.76 65.806 794.104 64.0164 795.116 63.0297C796 62.1687 797.879 62.227 799.451 62.4995C805.78 63.5952 795.929 68.0352 794.077 68.9333C790.961 70.4459 768.291 81.4496 773.594 86.9371C776.401 89.8399 783.251 87.657 786.301 86.8923C791.649 85.551 797.224 82.9689 802.709 82.3764C803.387 82.303 805.41 82.785 805.962 82.5748C807.208 82.1013 806.897 81.1542 807.91 80.6561C809.435 79.9082 812.551 79.9445 814.099 80.1126C815.31 80.2442 816.636 80.9617 817.866 80.8646C819.223 80.7574 820.532 79.9741 821.878 79.7217C824.179 79.2913 826.561 79.5022 828.886 79.569C832.229 79.666 838.911 80.1674 834.054 84.5769C830.124 88.1458 823.324 89.6905 818.366 91.2479C811.03 93.5495 803.825 95.6443 796.584 98.2669C791.65 100.053 781.126 103.19 787 109.886C787.58 109.342 788.159 108.799 788.738 108.255C789.423 108.943 790.131 110.282 791.228 110.321C792.141 110.353 791.806 109.379 792.669 109.075C795.382 108.119 799.101 108.191 801.961 108.012C809.128 107.561 816.269 106.618 823.445 106.326C830.203 106.051 837.033 106.408 843.658 107.816C845.363 108.178 861.253 112.322 855.109 114.746ZM796.504 183.594C796.865 186.582 795.529 189 795.158 191.887C794.71 195.377 795.039 198.452 794.042 201.921C792.105 208.666 790.728 215.567 788.649 222.273C784.978 234.113 779.051 244.57 772.958 255.313C769.848 260.79 765.167 265.312 760.888 269.894C756.504 274.589 753.001 279.21 747.759 283.065C737.285 290.77 725.983 297.623 713.582 301.786C700.604 306.144 686.954 307.464 673.321 306.91C667.271 306.664 660.858 307.272 654.904 306.301C648.573 305.267 641.712 303.998 635.49 302.471C624.068 299.672 613.063 294.919 601.908 290.674C589.45 285.932 578.234 279.88 566.875 273.042C563.869 271.234 560.692 270.389 557.874 268.199C555.497 266.355 553.16 264.591 550.661 262.906C547.793 260.973 545.047 258.86 542.117 257.023C540.367 255.924 537.903 254.85 536.985 252.862C535.72 250.128 537.244 246.695 538.032 244.042C539.058 240.59 540.149 237.181 541.382 233.797C543.47 228.066 548.784 219.228 545.861 213.171C539.7 216.961 536.983 224.411 534.349 230.745C531.203 238.312 529.007 245.86 528.533 254.067C527.58 270.575 530.362 287.951 536.394 303.344C537.29 305.63 538.865 308.109 537.707 310.555C536.493 313.121 533.198 315.288 530.666 316.398C522.654 319.907 514.61 320.929 506.242 322.87C503.964 323.398 501.47 324.985 499.332 325.185C497.889 325.32 496.696 324.85 495.043 324.861C493.383 324.872 492.085 325.795 490.6 325.894C489.303 325.981 488.152 325.228 486.916 325.299C484.149 325.459 483.639 330.167 482.268 326.022C482.019 326.193 480.646 327.738 480.473 327.739C480.082 327.74 479.393 326.587 479.02 326.383C478.292 325.982 477.334 325.959 476.521 325.855C474.727 325.623 472.792 325.6 471.025 326.008C467.749 326.766 464.455 326.447 461.654 326.392C461.017 326.38 460.565 326.889 459.773 326.859C459.412 326.844 458.892 326.21 458.509 326.113C456.294 325.546 453.995 325.969 451.74 325.845C446.439 325.555 441.322 325.414 436.147 324.251C425.54 321.867 414.727 321.39 404.078 319.209C398.653 318.098 393.353 317.492 388.011 316.027C386.134 315.512 384.21 315.269 382.547 314.567C380.958 313.896 381.583 313.002 379.118 314.797C378.011 312.102 377.879 312.377 375.206 311.486C374.172 311.14 371.796 310.284 371.026 309.605C370.949 309.537 369.304 305.434 369.162 304.93C368.477 302.479 369.048 299.678 369.334 297.212C369.98 291.652 370.914 286.136 370.969 280.531C370.993 278.06 371.442 277.988 372.217 276.125C372.456 275.548 373.16 275.593 373.218 274.715C373.298 273.542 372.09 272.727 372.221 271.358C372.394 269.517 374.256 267.651 374.91 265.935C375.696 263.869 375.685 261.684 376.154 259.546C376.781 256.701 377.993 254.031 378.603 251.173C379.123 248.754 379.172 246.83 380.47 244.753C381.769 242.681 381.386 240.989 382.42 238.925C383.369 237.033 384.569 236.353 385.219 234.068C386.792 228.538 389.183 223.064 392.57 218.377C395.549 230.13 398.718 242.274 407.013 251.565C410.429 255.39 414.84 259.25 419.991 260.415C425.816 261.733 430.474 258.322 434.267 254.281C443.304 244.652 447.047 233.904 447.593 220.847C447.729 217.602 447.709 214.352 447.665 211.105C447.644 209.66 446.898 205.951 447.896 204.736C448.989 203.404 452.109 204.236 453.733 203.358C455.73 202.276 457.924 199.383 457.033 196.998C462.355 199.391 467.444 202.54 473.362 203.207C475.705 203.471 478.2 203.069 480.296 202.958C480.233 202.961 481.918 203.303 482.019 203.325C482.435 202.85 482.885 202.734 483.368 202.978C483.799 203.024 484.112 203.253 484.309 203.667C492.745 204.504 501.239 200.365 508.46 195.981C512.678 193.419 517.312 189.627 518.496 184.639C518.919 182.86 518.553 181.184 520.406 180.276C521.911 179.537 524.818 180.603 526.406 180.718C531.994 181.125 537.499 180.598 542.955 182.251C546.283 183.261 552.095 190.331 554.416 185.357C555.423 186.296 554.877 187.967 555.948 188.88C556.883 189.676 560.025 190.237 561.317 190.918C563.319 191.972 564.493 193.375 566.246 194.642C568.398 196.2 570.651 196.32 572.736 198.147C579.955 204.476 588.41 209.06 596.47 214.309C606.033 220.536 614.496 227.875 624.758 232.954C635.253 238.147 645.408 242.486 656.876 245.187C662.078 246.413 667.413 247.437 672.754 247.814C675.272 247.991 677.675 247.902 680.105 248.652C681.581 249.109 682.058 249.337 683.508 249.379C684.352 249.403 685.575 248.919 686.616 248.937C688.753 248.975 689.844 248.888 691.773 249.59C693.955 250.384 695.769 250.862 698.254 250.93C701.112 251.01 702.795 249.919 705.391 249.247C707.484 248.705 709.369 248.964 711.241 247.839C719.565 242.839 726.254 235.204 730.619 226.537C735.631 216.589 739.492 204.462 740.277 193.314C740.727 186.933 739.309 180.711 736.856 174.852C736.163 173.199 732.007 166.16 733.288 164.882C734.74 163.429 739.492 166.759 740.832 167.482C745.082 169.776 752.759 170.511 755.739 174.37C756.497 172.924 760.718 175.067 762.072 175.67C763.191 176.169 763.508 177.071 764.917 177.179C766.245 177.281 767.615 176.23 768.835 175.895C767.943 178.365 770.941 178.48 772.995 178.611C774.474 178.705 776.064 178.474 777.381 178.381C779.903 178.203 779.944 177.641 782.247 176.358C782.157 177.298 782.26 178.216 782.553 179.111C784.033 176.984 786.857 178.461 788.857 177.527C787.412 175.349 793.583 174.752 795.02 175.21C798.638 176.364 796.185 180.946 796.504 183.594ZM513.233 333.265C515.62 332.559 518.023 331.913 520.416 331.238C518.603 332.89 516.719 335.872 514.13 336.338C511.005 336.897 509.775 334.288 513.233 333.265ZM395.386 334.45C399.405 334.927 403.781 334.561 407.303 336.918C405.587 338.878 404.472 340.931 401.608 339.806C399.202 338.862 397.222 336.169 395.386 334.45ZM529.647 441.819C527.008 439.469 527.356 438.418 528.595 435.376C529.128 434.067 529.972 430.001 531.974 431.192C532.685 431.615 533.545 436.047 533.673 436.945C533.956 438.952 532.705 444.543 529.647 441.819ZM544.53 428.173C543.598 424.771 543.63 421.068 542.714 417.583C541.747 413.903 540.557 410.211 540.215 406.408C554.158 408.853 562.077 422.593 568.116 434.059C571.325 440.151 574.471 446.89 575.682 453.701C576.862 460.338 574.814 465.377 572.433 471.292C571.22 474.312 569.214 475.359 566.873 477.355C564.798 479.123 564.02 482.105 561.858 483.694C560.261 484.868 558.186 485.477 556.516 486.662C554.865 487.832 553.215 488.992 551.512 490.086C549.565 491.334 543.731 495.889 541.103 494.917C539.135 494.19 540.011 491.799 540.507 490.3C541.551 487.14 542.284 484.098 542.928 480.804C544.649 472.015 545.581 463.281 546.027 454.341C546.462 445.612 546.868 436.695 544.53 428.173ZM532.868 467.815C533.077 468.247 533.948 471.936 532.005 471.178C530.655 470.651 532.67 468.492 532.868 467.815ZM541.083 321.322C542.729 320.647 543.387 322.644 544.834 322.703C546.755 322.782 547.158 320.662 549.173 320.599C554.1 320.446 561.239 325.173 565.246 327.64C563.284 330.103 562.475 332.622 563.45 335.653C564.31 338.324 567.593 341.311 567.473 344.141C567.349 346.979 563.796 348.806 562.689 351.331C561.671 353.65 561.283 358.288 564.426 359.311C569.832 361.069 571.069 351.015 575.165 350.936C576.917 350.904 579.193 354.174 580.453 355.192C583.274 357.472 586.455 359.138 589.736 360.651C591.951 361.673 595.034 363.686 596.676 360.94C597.992 358.741 596.917 355.255 595.638 353.363C594.17 351.192 581.022 341.254 581.852 340.379C582.294 339.912 585.568 341.199 586.032 341.59C587.081 342.471 587.466 343.906 588.516 344.844C590.121 346.277 592.193 346.844 594.176 347.507C598.315 348.887 600.934 353.745 604.946 356.008C607.26 357.312 608.672 359.817 610.63 361.757C613.192 364.297 615.803 366.959 615.418 370.699C615.15 373.29 614.763 379.327 613.287 381.514C611.684 383.887 609.019 382.977 606.584 383.538C603.845 384.168 601.654 386.29 602.199 389.321C602.766 392.473 605.304 392.698 607.955 392.777C615.434 393.001 612.68 397.717 615.288 402.896C616.705 405.708 619.068 406.813 620.694 403.521C622.004 400.872 619.665 396.696 621.086 394.435C622.817 391.678 632.082 392.429 634.014 394.569C635.479 396.193 636.255 398.425 637.716 400.123C639.933 402.701 640.844 406.315 642.175 409.476C643.587 412.832 644.819 416.237 645.9 419.714C646.66 422.156 648.301 426.024 644.372 423.938C641.628 422.482 639.578 419.196 636.101 419.091C632.662 418.989 630.703 422.536 631.708 425.62C632.679 428.605 637.113 429.92 637.626 432.946C638.191 436.257 632.479 439.635 630.746 442.069C626.752 447.674 630.092 453.984 636.637 449.226C638.957 447.54 641.386 444.138 644.003 443.073C648.143 441.386 648.118 447.634 650.101 449.933C651.169 451.17 651.555 449.913 650.923 451.762C650.689 452.443 649.507 452.656 649.374 453.504C649.278 454.125 649.838 454.453 649.858 454.934C649.923 456.563 649.927 456.803 649.558 458.574C649.15 460.536 649.298 462.975 649.175 464.971C648.893 469.53 648.833 473.884 648.35 478.441C648.083 480.977 647.522 486.144 650.537 487.38C649.464 489.051 648.035 493.696 645.925 493.347C646.097 494.447 646 495.852 647.076 496.57C647.333 495.9 647.59 495.23 647.846 494.558C648.438 496.091 647.918 496.268 647.883 497.311C647.927 496.019 646.696 499.113 647.362 498.731C646.795 499.201 646.049 499.469 645.198 500.078C644.009 500.927 643.382 502.1 642.46 503.249C640.79 505.325 640.886 507.423 639.424 509.588C637.35 512.66 634.689 515.692 632.505 518.761C630.726 521.26 627.336 522.7 625.911 525.386C625.005 527.095 624.644 529.081 623.097 530.282C620.882 532.003 617.922 533.624 615.516 535.401C614.002 536.517 612.852 538.067 611.342 539.151C610.577 539.7 608.275 540.257 608.272 541.375C605.376 540.57 603.324 537.632 601.047 535.844C599.525 534.649 595.9 533.097 596.119 530.701C596.299 528.742 599.104 526.312 599.75 524.257C600.299 522.517 601.061 519.27 599.546 517.782C596.365 514.663 592.759 521.358 591.052 523.14C587.53 526.815 586.032 523.109 583.137 520.44C578.512 516.177 575.604 520.6 577.232 525.908C578.057 528.595 581.197 530.992 581.401 533.736C581.625 536.752 578.334 538.267 577.031 540.677C575.802 542.949 575.234 546.941 577.545 548.822C580.094 550.896 582.311 548.442 583.978 546.528C585.273 545.04 586.712 541.768 588.815 541.582C591.45 541.35 595.771 546.102 597.775 547.568C594.73 548.443 592.897 550.975 590.322 552.597C587 554.69 582.362 555.185 578.644 556.622C575.141 557.976 571.989 559.079 568.654 560.758C564.696 562.751 559.855 563.249 555.664 564.699C551.923 565.995 548.373 567.812 544.551 568.882C540.244 570.088 535.773 570.813 531.43 571.903C527.716 572.834 523.36 573.73 519.532 573.736C515.661 573.743 515.741 571.363 514.504 568.191C513.033 564.424 510.597 561.118 509.043 557.442C507.564 553.946 509.797 552.619 511.938 549.944C513.955 547.423 513.422 547.028 516.023 548.799C519.447 551.128 521.709 549.552 524.372 546.872C526.743 544.492 527.613 542.512 531.023 544.171C534.436 545.83 537.687 548.53 541.353 549.612C544.242 550.464 546.394 549.845 546.878 546.708C547.4 543.318 545.453 540.912 542.999 538.899C541.132 537.368 537.052 535.551 536.369 533.066C535.65 530.448 539.438 526.629 539.843 523.702C540.354 520.006 538.751 517.289 535.22 519.848C532.658 521.703 530.954 525.728 527.397 525.977C528.385 521.863 530.527 518.207 532.365 514.437C533.905 511.282 535.226 507.698 539.361 507.346C540.702 507.233 541.574 507.372 542.853 507.143C544.542 506.841 546.834 506.601 548.639 506.148C552.887 505.082 556.638 501.826 560.549 499.959C561.447 502.355 563.033 509.18 566.685 505.196C569.387 502.248 566.395 497.175 568.883 493.896C574.017 487.131 585.197 492.099 591.941 488.61C594.877 487.092 597.267 482.249 593.128 480.788C590.708 479.935 583.724 483.085 582.269 480.763C581.231 479.107 585.579 472.638 586.104 470.86C587.739 465.326 587.474 459.581 587.474 453.882C590.755 455.215 594.908 458.335 598.445 458.763C602.081 459.201 602.721 454.961 601.768 452.177C600.454 448.34 596.078 445.196 593.079 442.725C591.756 441.636 588.294 439.882 587.569 438.226C586.821 436.516 587.893 435.687 588.733 434.201C590.046 431.879 593.226 425.875 589.765 423.699C586.582 421.696 584.796 427.308 582.768 428.508C579.326 430.545 578.147 425.879 576.779 423.504C574.295 419.193 570.853 415.345 567.764 411.466C564.951 407.934 563.218 405.545 562.807 401.045C562.496 397.637 561.794 394.998 565.841 394.224C573.016 392.851 583.521 396.234 589.349 390.436C592.406 387.397 590.222 384.254 586.362 384.41C581.293 384.616 576.472 384.865 571.37 384.456C568.657 384.239 562.986 384.893 561.616 382.117C559.854 378.542 562.843 372.799 559.597 369.666C555.453 365.666 554.438 374.706 554.301 377.202C554.2 379.022 554.669 381.79 553.53 383.364C552.466 384.831 550.522 384.81 548.95 385.34C544.989 386.677 542.943 391.51 548.198 392.532C549.965 392.877 552.43 392.376 553.899 393.677C555.437 395.039 554.849 397.46 554.994 399.296C551.314 395.059 543.661 396.937 538.677 395.363C536.052 394.535 535.608 393.431 534.504 390.906C533.167 387.85 530.121 383.987 530.004 380.608C529.905 377.74 532.311 375.581 533.434 373.108C534.398 370.986 535.27 367.533 535.127 365.153C534.783 359.41 524.351 365.272 522.202 367.469C518.302 371.456 513.494 376.614 515.608 382.262C517.494 387.302 518.494 390.16 511.951 389.763C509.557 389.618 504.527 390.089 502.669 389.085C501.29 388.34 501.808 387.003 501.762 385.067C501.724 383.389 501.851 380.846 500.767 379.38C496.951 374.224 496.058 387.055 493.915 388.445C490.568 390.619 483.48 388.341 484.027 394.792C484.506 400.436 492.188 398.131 494.314 402.987C495.336 405.327 495.119 408.05 496.408 410.307C498.245 413.525 500.506 413.354 501.724 409.999C502.579 407.643 501.439 405.222 502.097 402.998C503.047 399.784 507.57 400.082 510.353 399.718C513.735 399.276 516.683 398.431 519.9 397.397C523.869 396.122 523.653 398.216 524.299 401.247C525.049 404.764 526.195 408.155 526.898 411.724C527.553 415.051 529.29 418.633 529.573 421.963C529.789 424.508 528.921 424.275 526.799 425.744C524.478 427.349 521.925 431.522 519.233 432.208C515.183 433.241 511.102 424.047 507.418 428.751C505.835 430.771 506.448 435.071 507.573 437.157C509.059 439.914 511.791 440.615 509.501 443.773C507.78 446.145 505.617 447.983 505.455 451.175C505.305 454.138 507.334 456.942 510.507 456.071C513.07 455.369 514.585 452.762 516.526 451.179C519.877 448.446 522.628 450.978 526.058 452.524C528.758 453.742 533.72 454.536 535.074 457.4C536.793 461.033 534.589 462.438 531.394 461.405C532.64 465.468 531.001 467.828 530.552 472.027C530.189 475.426 529.402 478.535 528.9 481.821C528.234 486.209 528.164 485.733 523.617 485.882C519.754 486.009 515.997 485.907 512.139 485.738C508.74 485.59 506.428 485.895 506.275 481.821C506.207 480.024 507.349 473.929 503.781 474.66C500.639 475.305 501.544 480.874 500.493 482.967C498.973 485.996 496.401 485.07 493.54 485.817C490.63 486.579 488.277 488.713 489.027 492.01C489.83 495.53 493.079 495.285 495.903 496.1C500.252 497.353 499.298 503.706 501.836 507.157C502.872 508.565 503.963 509.988 505.702 508.832C508.891 506.712 505.88 501.534 506.723 498.936C507.609 496.203 510.597 496.763 513.422 496.408C517.591 495.886 521.955 493.889 526.109 493.913C525.313 496.294 523.081 497.677 522.278 500.183C521.847 501.527 522.25 504.036 521.651 505.146C521.009 506.34 518.983 506.697 518.145 508.357C517.047 510.531 516.709 512.86 515.425 514.989C512.391 520.024 509.778 525.171 506.553 530.155C503.222 535.301 499.633 540.199 495.443 544.66C491.379 548.99 490.166 546.893 486.674 543.354C485.252 541.914 482.232 540.247 481.837 538.096C481.446 535.975 483.213 534.245 484.179 532.519C485.462 530.231 487.776 526.294 487.213 523.548C486.154 518.393 481.513 523.14 479.753 525.07C476.679 528.441 474.962 531.986 470.316 529.323C467.343 527.618 463.594 522.951 459.691 524.677C456.138 526.248 457.133 530.788 459.319 533.091C460.543 534.381 462.287 535.12 463.586 536.327C466.382 538.93 464.799 539.637 463.523 542.552C462.479 544.939 462.328 549.63 464.253 551.619C468.042 555.529 470.971 547.641 474.487 547.48C476.154 547.404 483.082 551.918 483.577 553.544C484.443 556.396 476.968 559.801 474.982 561.14C470.362 564.253 465.33 567.427 460.134 569.491C454.002 571.927 458.572 564.25 455.22 561.699C450.86 558.381 450.522 567.472 450.075 569.73C448.886 575.737 442.496 575.893 437.341 577.383C434.059 578.332 430.774 579.339 427.459 580.164C424.645 580.864 421.495 580.847 418.767 581.714C416.375 582.474 414.738 584.017 412.063 584.035C411.193 584.041 410.437 583.748 409.598 583.728C407.906 583.688 406.355 584.648 404.738 584.549C402.049 584.382 403.219 583.54 402.282 581.677C401.404 579.928 399.168 579.286 397.429 578.739C392.442 577.174 388.29 578.546 387.566 572.249C387.343 570.316 387.637 562.376 383.933 563.304C379.606 564.386 383.413 573.823 380.728 576.187C379.421 577.338 377.448 576.764 375.873 577.105C373.287 577.662 372.153 579.601 369.322 579.471C366.934 579.362 364.711 578.309 362.63 577.264C359.527 575.704 355.825 574.672 353.238 572.293C349.692 569.031 348.136 563.953 346.625 559.544C344.401 553.05 343.453 546.578 343.096 539.768C342.971 537.394 341.955 535.72 341.531 533.542C341.08 531.225 342.413 530.761 342.72 528.566C343.018 526.433 342.873 524.154 343.325 521.867C343.975 518.58 344.202 515.217 344.832 511.919C345.875 506.467 347.456 501.051 348.753 495.648C349.157 493.968 349.887 488.587 351.973 488.07C353.513 487.689 357.067 489.965 358.494 490.633C361.315 491.954 363.74 493.779 366.758 494.694C368.315 495.166 370.282 495.12 371.304 496.555C372.919 498.828 371.613 503.278 372.282 505.963C373.102 509.25 375.816 510.649 378.002 507.346C379.168 505.587 378.857 503.487 379.014 501.542C379.237 498.736 379.287 498.057 382.344 498.246C385.441 498.439 388.465 499.6 391.641 499.741C394.505 499.868 397.382 499.79 400.243 499.634C407.19 499.256 413.543 498.134 420.058 495.678C424.472 494.015 429.589 490.377 434.453 490.506C441.318 490.686 439.46 496.998 440.399 501.719C440.972 504.592 445.811 513.413 447.671 506.254C448.589 502.713 445.526 497.551 447.341 494.353C449.485 490.574 457.364 493.709 460.949 492.834C463.85 492.126 468.698 488.041 466.649 484.518C465.679 482.848 463.794 483.165 462.114 483.04C458.929 482.804 455.765 482.372 452.606 481.91C450.81 481.647 448.063 481.494 447.345 479.445C446.736 477.706 449.595 473.196 450.215 471.532C452.267 466.023 453.007 461.544 453.015 455.537C453.017 452.83 453.195 449.974 452.757 447.297C452.596 446.315 451.114 443.112 451.807 442.174C452.741 440.913 454.652 442.514 455.419 443.459C456.943 445.343 456.413 445.192 455.547 447.143C454.272 450.013 451.793 456.033 455.997 458.242C460.393 460.553 461.981 452.744 466.146 453.6C468.088 454 470.004 456.535 471.569 457.719C473.401 459.106 475.379 460.577 477.532 461.428C481.064 462.825 485.033 461.778 483.606 457.367C482.48 453.889 478.92 450.98 476.375 448.513C472.319 444.586 472.503 442.935 475.305 438.308C476.478 436.371 480.98 428.149 475.761 427.481C472.999 427.126 470.012 431.573 468.553 433.275C466.048 436.196 464.613 437.45 460.887 435.104C457.245 432.812 455.554 430.896 451.149 430.685C446.081 430.442 443.801 422.881 441.115 418.997C433.815 408.449 422.64 403.232 413.218 395.15C408.626 391.211 405.526 386.058 402.034 381.209C400.371 378.9 398.224 376.982 396.869 374.465C396.017 372.883 393.708 369.068 394.309 367.201C395.057 364.876 399.095 363.442 400.775 361.799C402.185 360.422 402.938 358.705 405.155 359.231C407.129 359.7 408.908 362.352 410.521 363.518C412.105 364.662 413.892 365.723 415.648 366.579C418.825 368.126 422.66 368.953 422.847 364.248C423.009 360.177 419.27 355.817 416.568 353.07C414.602 351.071 411.624 349.334 412.014 346.16C412.206 344.586 413.553 341.784 414.338 340.464C417.047 335.92 425.317 338.692 429.811 338.983C435.226 339.335 441.196 338.432 445.5 342.236C446.904 343.477 450.157 345.915 450.846 347.642C451.648 349.652 450.338 350.556 449.611 352.501C448.669 355.015 448.022 359.98 450.731 361.714C455.252 364.606 457.61 356.025 462.31 357.902C466.767 359.682 469.882 364.8 474.97 365.61C481.628 366.669 477.836 358.475 475.533 356.063C472.544 352.937 466.75 349.705 468.647 345.082C469.189 343.761 470.427 341.006 471.541 340.185C473.722 338.579 477.237 339.461 479.734 339.487C486.036 339.554 491.985 339.039 498.162 337.945C500.024 337.615 500.447 337.353 501.759 338.731C503.576 340.636 504.53 343.12 506.643 344.993C503.591 348.26 499.065 352.117 501.188 357.146C503.014 361.473 507.018 359.351 509.726 357.039C510.999 355.954 512.312 353.656 513.998 353.22C516.187 352.654 518.646 354.629 520.438 355.631C523.127 357.136 528.878 361.597 531.933 358.963C535.972 355.48 531.192 350.238 528.409 348.087C526.726 346.785 524.484 345.857 523.067 344.251C521.182 342.113 522.288 341.8 523.43 339.873C525.52 336.349 524.754 331.809 528.098 329.056C529.951 327.53 532.602 326.57 534.719 325.451C536.803 324.347 539.039 322.161 541.083 321.322ZM575.149 335.029C574.336 334.534 573.522 334.04 572.71 333.545C574.569 332.645 575.795 332.752 575.149 335.029ZM620.01 377.855C620.337 376.21 621.615 373.267 623.374 374.806C624.507 375.795 623.269 379.509 625.964 378.482C626.102 380.847 624.328 380.646 626.945 382.751C623.643 382.371 619.084 382.519 620.01 377.855ZM491.824 577.285C492.656 575.069 492.649 571.634 495.209 573.659C495.343 570.976 494.704 562.467 499.609 562.813C501.609 562.953 501.587 564.706 502.116 566.223C503.037 568.87 504.594 571.281 505.905 573.748C501.037 573.944 496.166 575.05 491.824 577.285ZM493.418 607.865C496.2 609.953 497.594 607.488 500.221 606.589C502.644 605.759 505.16 606.257 507.845 605.667C511.176 604.937 515.098 605.048 518.352 605.019C519.153 605.013 520.83 605.138 521.64 605.232C523.116 605.399 522.984 605.703 524.512 606.11C525.102 605.975 525.697 605.877 526.299 605.816C527.036 605.784 527.618 606.087 528.043 606.725C529.417 607.179 529.917 606.877 531.232 607.195C534.365 607.955 536.703 609.829 538.749 612.314C542.915 617.371 543.039 624.971 542.943 631.231C542.916 633.014 542.779 634.788 542.978 636.566C543.159 638.197 544.32 640.661 543.846 642.283C543.127 644.736 540.902 644.184 538.31 644.294C536.785 644.359 535.262 645.336 534.048 645.423C532.874 645.507 532.4 645.077 531.212 644.813C528.112 644.124 524.453 645.107 521.394 645.945C518.256 646.805 515.504 647.653 512.322 648.262C510.251 648.658 508.387 648.883 506.298 649.142C504.585 649.355 503.847 650.25 502.352 650.619C500.911 650.974 499.505 650.442 498.051 650.722C496.069 651.102 494.688 652.546 492.882 653.265C490.392 654.257 486.413 652.775 485.309 655.832C484.878 652.884 482.03 653.685 479.91 653.424C476.418 652.994 472.976 651.438 469.616 650.446C466.861 649.633 457.337 642.137 455.513 645.179C455.516 644.872 455.847 643.129 455.559 642.928C454.543 642.219 454.551 642.609 453.457 642.165C451.783 641.485 451.078 640.872 449.882 639.726C447.462 637.41 444.205 636.199 441.657 634.099C435.253 628.821 433.06 617.95 431.498 610.383C429.455 613.979 430.207 609.364 430.561 607.822C431.397 604.183 430.321 602.388 430.079 598.874C429.855 595.64 431.339 595 434.279 594.662C437.901 594.245 441.387 593.663 444.936 592.766C448.323 591.908 451.642 590.941 454.7 589.235C457.498 587.675 460.434 587.061 463.294 585.696C466.45 584.188 469.544 582.605 472.727 581.137C474.162 580.476 480.48 575.742 481.577 576.03C483.828 576.622 481.702 580.537 481.016 581.565C479.252 584.203 476.356 585.427 473.744 587.088C471.387 588.584 464.241 595.675 471.496 594.964C476.303 594.493 479.56 589.489 482.635 595.191C483.721 597.205 485.319 598.82 484.071 600.901C482.328 603.803 477.3 605.187 474.664 607.14C472.418 608.805 467.821 616.654 472.453 617.495C473.785 617.737 475.837 617.424 476.827 616.396C477.495 615.703 477.448 614.277 478.123 613.803C479.081 613.13 480.94 613.963 482.032 613.595C483.589 613.069 483.954 612.225 484.526 610.74C486.189 611.493 486.212 612.504 488.11 611.532C488.739 611.21 488.971 610.028 489.699 609.712C490.678 609.289 490.97 610.678 491.507 610.473C492.962 609.919 492.957 609.294 493.418 607.865ZM393.641 584.781C390.853 584.988 387.809 585.211 385.43 583.446C388.32 583.62 390.869 584.268 393.766 583.675C394.917 583.439 396.761 582.36 397.94 582.735C402.132 584.07 394.757 584.697 393.641 584.781ZM385.899 341.277C385.858 340.304 385.026 327.205 389.532 332.35C390.766 333.758 389.436 335.643 389.26 337.2C388.964 339.823 389.89 342.452 391.282 344.662C392.581 346.722 395.005 348.526 394.642 351.213C394.324 353.57 391.928 355.583 390.747 357.539C387.844 352.996 386.132 346.745 385.899 341.277ZM375.994 203.803C365.551 204.894 355.161 206.825 345.093 209.805C335.207 212.73 325.992 217.304 316.703 221.686C314.788 213.547 312.784 205.428 310.892 197.282C309.983 193.362 309.114 189.431 308.262 185.497C307.656 182.7 305.451 177.485 306.371 174.734C306.86 173.276 307.504 173.269 308.554 172.369C309.195 171.82 310.313 170.475 310.978 170.188C312.597 169.488 316.755 168.876 318.412 168.976C319.923 169.066 320.712 169.662 322.266 169.231C323.589 168.864 324.7 167.853 325.942 167.299C329.1 165.888 333.044 165.415 336.422 164.669C339.674 163.951 343.031 163.791 346.29 163.08C349.144 162.456 350.501 160.369 352.936 160.445C359.273 160.641 366.28 159.904 372.567 158.4C379.62 156.714 387.294 157.04 394.531 156.86C397.414 156.788 399.44 156.144 399.455 159.331C399.472 163.221 397.907 167.588 397.109 171.386C395.338 179.806 393.839 187.99 393.169 196.539C392.835 200.816 391.069 200.517 387.568 201.829C383.672 203.288 380.137 203.371 375.994 203.803ZM321.09 290.188C323.663 290.565 323.368 283.577 323.556 282.156C329.691 293.643 336.6 304.699 342.005 316.563C343.268 319.338 344.416 322.176 345.751 324.917C346.664 326.794 348.708 329.313 348.66 331.496C348.607 333.775 346.754 334.627 344.801 335.472C342.691 336.384 341.866 336.839 340.378 335.785C338.578 334.506 337.075 330.57 335.963 328.673C334.265 325.776 332.639 322.837 330.976 319.921C327.963 314.634 324.408 309.573 321.932 304.023C319.613 298.823 316.105 294.349 313.605 289.242C311.13 284.184 307.742 279.388 304.896 274.437C307.754 273.257 311.316 270.306 314.563 270.47C317.917 270.64 317.836 273.854 317.981 276.532C318.134 279.375 317.176 289.612 321.09 290.188ZM329.329 342.089C327.799 343.892 324.348 344.951 322.232 345.951C319.301 347.335 316.301 348.567 313.384 349.979C303.813 354.617 294.283 358.861 284.533 363.119C279.494 365.32 274.516 367.66 269.598 370.117C267.021 371.403 261.345 375.913 258.381 376.028C254.983 376.159 254.903 369.346 254.155 366.79C253.526 364.652 252.358 362.987 251.573 360.96C251.253 360.132 251.501 359.504 251.014 358.684C250.459 357.749 248.903 356.996 248.103 356.191C244.707 352.766 241.892 348.406 239.024 344.548C236.397 341.014 231.915 336.589 230.655 332.258C228.177 323.744 242.574 319.031 248.083 315.611C257.727 309.622 267.419 303.47 276.613 296.816C280.801 293.785 284.901 290.633 289.11 287.629C291.074 286.228 296.517 280.775 299.039 282.718C299.977 283.442 299.995 285.443 300.387 286.492C301.243 288.785 302.543 290.787 303.859 292.844C305.028 294.665 306.691 296.548 307.421 298.58C308.292 301.004 308.252 302.376 309.846 304.55C312.745 308.503 314.114 313.064 316.81 317.094C319.409 320.98 321.906 323.847 323.606 328.189C324.581 330.677 326.12 332.885 327.479 335.173C328.12 336.254 328.789 337.316 329.363 338.435C330.391 340.435 330.753 340.409 329.329 342.089ZM247.064 375.343C245.225 376.65 242.517 374.453 240.733 374.423C239.956 374.41 239.185 375.011 238.667 374.994C237.108 374.948 235.833 373.908 234.398 373.424C227.772 371.185 219.871 371.1 214.21 366.555C202.965 357.524 208.327 339.405 210.375 327.667C210.792 325.274 211.543 321.959 209.595 319.999C207.46 317.85 204.249 319.132 202.295 320.871C200.29 322.653 198.927 325.15 197.261 327.232C194.606 330.547 191.709 333.681 188.783 336.757C178.385 347.69 167.374 360.2 154.512 368.223C149.163 371.561 144.321 376.083 138.458 378.627C131.405 381.686 138.645 369.876 139.913 367.957C148.214 355.397 160.299 345.455 170.448 334.429C172.364 332.348 175.084 329.543 175.117 326.545C175.169 322.044 171.165 322.448 167.999 323.698C165.038 324.867 163.555 327.776 161.172 329.764C158.206 332.239 154.741 334.247 151.439 336.244C144.319 340.552 136.761 344.167 129.225 347.692C125.7 349.341 122.159 350.954 118.617 352.568C117.645 353.011 111.835 356.67 112.113 353.533C112.15 353.111 115.857 348.642 116.314 348.476C118.597 347.647 119.728 350.148 121.759 346.871C123.202 344.543 123.402 343.336 125.439 341.57C125.786 341.27 126.025 340.51 126.306 340.018C126.271 340.203 127.819 338.708 127.523 338.968C127.93 338.611 128.521 337.958 128.851 337.529C130.444 335.464 133.505 335.425 134.889 333.065C135.417 332.167 135.118 331.014 135.754 330.122C136.646 328.871 138.608 328.339 139.654 327.238C140.551 326.292 141.291 325.521 141.848 324.943C142.232 324.545 142.905 324.265 143.359 323.809C144.489 322.674 144.399 321.67 145.98 320.716C147.4 319.86 148.053 320.661 148.544 318.541C150.271 319.64 150.054 318.032 150.756 316.879C151.667 315.38 152.825 314.712 154.082 313.627C156.846 311.24 159.437 307.686 161.789 304.681C167.638 297.208 172.368 288.47 174.11 279.094C174.528 276.852 174.757 274.587 174.923 272.313C175.012 271.118 174.619 268.207 175.364 267.036C176.522 265.218 178.719 265.94 180.391 265.145C180.959 264.874 181.52 264.078 182.052 263.897C182.798 263.644 183.71 263.891 184.484 263.647C184.785 263.553 184.854 262.675 185.351 262.562C186.326 262.341 187.295 262.693 188.259 262.706C190.367 262.734 192.449 262.365 194.471 261.697C196.311 261.09 197.851 259.699 199.686 259.197C199.499 259.249 202.712 259.502 202.539 259.322C202.693 258.537 202.846 257.751 203 256.965C204.22 257.811 208.379 258.927 209.67 258.734C211.744 258.423 211.307 256.567 213.065 259.005C214.06 258.143 215.055 257.281 216.05 256.419C216.804 259.56 221.997 258.036 224.35 258.209C227.667 258.455 230.279 257.837 233.301 258.983C236.976 260.379 240.2 261.85 244.159 262.231C246.925 262.496 248.075 263.787 250.785 264.584C254.427 265.654 254.715 266.835 253.575 270.53C252.652 273.526 251.854 275.835 253.203 278.91C255.597 284.36 262.101 286.606 266.295 290.373C256.471 297.219 246.771 303.954 237.275 311.25C233.295 314.306 229.064 317.367 226.797 321.964C224.707 326.208 223.522 331.307 222.265 335.849C219.38 346.263 227.506 353.271 235.854 357.853C237.582 358.8 249.48 373.627 247.064 375.343ZM230.862 387.931C230.274 385.928 230.351 385.393 232.298 384.675C233.035 384.403 235.861 384.047 236.318 385.052C237.353 387.331 231.912 387.302 230.862 387.931ZM313.646 242.789C314.344 247.234 315.03 251.679 315.654 256.134C315.997 258.595 316.776 260.772 314.93 262.628C313.881 263.682 311.336 264.076 309.996 264.637C308.064 265.447 306.182 266.376 304.324 267.342C301.012 269.064 297.55 270.101 294.28 271.655C292.858 272.329 292.015 273.659 290.784 274.576C289.1 275.831 287.051 276.441 285.313 277.635C282.206 279.77 279.36 282.296 276.255 284.445C272.738 286.881 272.005 286.099 270.029 282.5C268.256 279.27 266.128 277.796 263.574 275.264C262.581 274.279 259.028 268.666 262.046 268.183C262.82 268.058 265.492 269.212 266.098 269.582C267.017 270.142 268.488 273.329 269.236 273.383C270.583 273.481 272.309 269.671 273.149 268.669C278.652 262.091 284.705 255.585 291.082 249.832C294.387 246.85 297.859 244.132 301.606 241.725C304.271 240.014 306.596 237.616 309.223 235.992C309.779 235.514 310.409 235.173 311.116 234.968C312.486 234.35 313.001 234.883 312.66 236.568C313.446 238.217 313.36 240.97 313.646 242.789ZM193.274 236.965C194.611 235.613 196.301 234.532 197.467 233.023C198.125 232.172 198.559 230.65 199.312 230.1C200.623 229.141 202.498 229.583 204.023 228.297C205.495 227.054 206.788 225.567 208.226 224.277C211.344 221.484 214.561 218.917 217.62 216.073C219.358 214.457 221.181 212.361 222.725 211.294C223.135 211.011 223.593 210.59 224.029 210.372C224.959 209.906 225.423 210.38 226.78 209.946C227.679 209.661 228.32 208.531 229.04 207.997C230.753 206.727 232.985 206.224 234.633 205.002C236.282 203.78 237.075 201.881 239.344 200.862C242.088 199.629 244.146 200.603 246.13 198.246C246.939 197.285 247.16 196.074 248.431 195.468C249.961 194.737 251.304 195.512 252.766 194.682C253.752 194.122 254.425 192.947 255.442 192.333C257.263 191.239 259.278 191.123 260.981 189.768C262.418 188.626 261.62 188.743 263.322 188.261C264.07 188.049 264.9 187.957 265.699 187.687C268.258 186.82 272.436 185.758 273.951 183.349C274.721 184.463 274.985 184.69 276.233 184.343C276.888 183.814 277.489 183.232 278.037 182.596C278.438 183.1 278.869 183.13 279.329 182.686C282.029 181.765 284.506 180.181 287.166 179.302C287.543 179.504 287.92 179.707 288.296 179.908C288.82 179.937 289.033 179.683 288.934 179.145C289.98 178.955 291.186 178.498 292.15 178.081C293.999 177.281 296.041 175.38 298.219 176.06C301.856 177.196 302.031 184.564 302.658 187.484C304.205 194.679 305.762 201.872 307.315 209.066C307.947 211.994 308.502 214.943 309.334 217.821C309.878 219.701 311.231 222.475 310.742 224.475C310.143 226.926 307.734 227.724 305.72 228.858C302.944 230.42 300.261 232.153 297.633 233.953C286.48 241.592 278.165 252.097 270.257 262.875C268.791 260.761 264.867 257.793 262.421 256.839C260.708 256.173 259.167 256.71 257.461 255.896C256.245 255.315 255.235 254.181 254.085 253.45C247.063 248.984 238.587 245.292 230.448 243.521C213.747 239.883 197.398 245.515 181.205 248.188C184.49 243.702 189.403 240.874 193.274 236.965ZM305.061 115.243C307.919 105.993 312.732 97.0389 319.582 90.1007C323.035 86.6028 327.094 83.5455 331.643 81.6007C335.601 79.91 340.308 78.2884 340.247 83.7253C340.113 95.5279 337.368 107.197 337.032 119.019C336.706 130.603 338.659 139.902 345.719 149.237C341.246 150.268 336.774 151.315 332.317 152.412C328.933 153.246 325.423 154.18 322.221 154.753C319.055 155.317 316.144 155.686 313.014 156.748C310.905 157.464 307.599 159.653 305.316 159.178C301.522 158.388 302.42 144.871 302.225 141.624C301.677 132.453 302.336 124.069 305.061 115.243ZM374.416 133.05C379.6 126.802 384.987 119.512 393.709 118.352C402.142 117.23 405.25 127.273 404.714 134.045C404.533 136.336 404.189 142.286 402.513 144.142C400.658 146.196 397.366 144.648 395.01 144.331C384.838 142.964 374.411 145.246 364.211 145.246C367.612 141.18 371.031 137.129 374.416 133.05ZM416.15 157.968C419.688 158.472 422.513 159.007 420.804 163.006C417.385 171.015 414.758 178.659 417.754 187.39C420.043 194.057 427.29 202.151 434.531 203.487C437.07 203.956 440.887 203.118 442.446 205.677C443.836 207.957 442.33 214.793 442.168 217.325C441.566 226.755 439.133 236.112 432.986 243.522C427.516 250.115 420.842 255.275 412.887 249.052C406.181 243.807 402.221 234.423 400.237 226.404C399.178 222.123 399.049 217.852 398.847 213.477C398.668 209.608 397.925 207.154 402.331 206.351C403.512 206.137 406.463 206.204 406.467 204.414C406.474 202.008 403.274 202.91 402.051 202.788C397.331 202.321 399.542 196.871 399.981 193.346C400.73 187.344 401.944 181.409 403.058 175.467C404.006 170.406 404.056 163.774 406.115 159.043C407.317 156.28 413.789 157.632 416.15 157.968ZM424.839 175.742C425.375 172.48 425.661 168.403 428.922 166.6C432.503 164.618 434.297 167.846 436.065 170.484C440.754 177.481 445.943 184.029 446.71 192.715C446.802 193.751 447.25 195.831 446.244 196.548C445.795 196.868 444.724 196.024 444.03 196.074C440.316 196.339 437.629 197.327 433.988 195.245C426.863 191.169 423.543 183.614 424.839 175.742ZM452.855 195.282C452.09 187.686 448.556 180.95 444.609 174.537C442.665 171.376 438.885 167.919 437.543 164.578C436.823 162.789 438.096 160.573 440.713 161.34C442.016 161.723 444.526 165.155 445.397 166.342C447.634 169.394 449.489 172.797 451.258 176.129C453.15 179.69 458.528 192.759 452.855 195.282ZM429.399 119.646C429.812 112.5 429.855 104.293 434.516 98.3628C438.128 93.7637 444.742 91.7619 450.108 89.9842C457.337 87.5887 466.019 87.219 473.579 87.993C480.233 88.6751 485.256 93.1734 489.361 98.1198C493.537 103.15 496.772 109.627 499.644 115.479C500.362 116.943 506.458 126.34 502.335 126.121C500.7 126.034 499.278 122.864 498.026 121.927C497.045 121.194 495.882 121.285 495.003 120.698C494.059 120.07 494.264 119.488 493.532 118.711C488.496 113.371 483.864 116.446 478.433 119.259C478.179 117.396 478.624 113.935 477.054 112.574C475.002 110.792 472.857 113.615 471.384 114.999C470.045 116.26 468.392 118.558 466.704 119.24C464.512 120.126 465.257 119.184 463.353 118.44C459.52 116.943 456.571 121.375 454.633 123.952C453.91 124.913 452.727 127.34 451.432 127.6C450.18 127.85 450.017 126.965 448.937 126.638C445.884 125.713 445.04 127.875 444.067 130.559C442.973 133.577 442.042 136.486 440.422 139.305C437.556 144.293 436.325 145.934 438.591 151.443C435.282 151.931 434.587 152.323 432.945 149.406C431.255 146.4 430.817 143.907 430.922 140.452C431.145 133.226 428.972 126.985 429.399 119.646ZM506.237 153.834C509.702 160.048 511.905 168.696 511.868 175.776C511.849 179.289 511.642 183.609 509.991 186.796C508.406 189.853 505.089 191.383 502.034 192.686C494.669 195.827 486.373 195.791 478.63 194.391C474.611 193.663 470.702 194.133 467.263 191.735C464.675 189.929 461.553 188.176 460.795 184.867C460.478 183.481 460.967 182.32 460.866 180.961C460.992 180.314 460.945 179.684 460.725 179.067C460.273 178.81 459.818 178.558 459.359 178.313C458.997 177.281 459.69 176.13 459.512 175.052C459.298 173.751 458.211 172.691 457.701 171.512C456.301 168.259 457.301 166.439 459.924 164.23C460.551 163.74 461.182 163.255 461.818 162.773C462.388 161.878 463.018 161.874 463.707 162.761C464.956 162.778 464.919 163.161 466.233 162.781C469.11 161.948 471.523 158.909 474.342 157.841C475.437 157.426 477.07 157.778 477.96 157.013C478.754 156.329 478.243 154.893 478.942 154.222C481.171 152.075 484.678 154.11 486.74 150.99C488.423 148.443 488.066 144.831 488.239 141.941C493.405 142.921 495.643 147.837 499.888 150.31C500.727 147.079 500.85 147.175 504.09 146.288C502.622 148.985 504.996 151.61 506.237 153.834ZM510.191 119.53C511.143 120.747 511.87 123.77 510.191 124.062V119.53ZM514.601 130.525C522.49 130.541 527.531 140.443 529.834 146.577C532.338 153.247 534.975 162.145 530.304 168.641C528.512 171.133 526.314 171.361 523.431 171.038C519.957 170.649 518.176 170.149 519.536 166.464C522.083 159.557 520.167 150.776 515.653 144.993C521.861 143.802 517.926 138.148 514.81 136.032C511.17 133.561 508.23 130.511 514.601 130.525ZM334.508 488.502C332.652 493.39 330.766 498.263 329.208 503.298C327.732 508.071 328.588 513.448 326.753 518.037C325.624 517.482 325.3 516.497 324.318 515.898C323.714 515.528 322.66 515.382 322.14 514.974C321.248 514.276 319.083 511.672 318.496 510.662C316.469 507.168 317.821 501.488 318.905 497.897C320.245 493.45 322.537 489.179 325.613 485.675C327.772 483.219 328.963 484 331.848 485.21C333.554 485.925 335.311 486.382 334.508 488.502ZM320.449 527.065C318.966 530.042 316.227 532.497 314.599 535.499C312.891 538.65 311.598 542.201 309.42 545.082C307.204 548.02 305.211 547.529 302.158 548.796C301.062 549.25 300.601 550.093 299.719 550.751C298.065 551.982 296.252 552.738 294.514 553.834C293.278 550.821 289.501 535.701 284.695 536.025C280.518 536.306 282.654 544.222 283.193 546.558C283.648 548.531 284.169 550.534 284.862 552.439C285.561 554.362 287.741 557.244 286.935 559.352C285.91 562.032 283.36 561.856 282.082 559.901C281.014 558.266 280.473 556.044 279.685 554.265C278.993 552.7 275.83 544.14 273.096 545.468C270.462 546.746 274.559 555.046 275.244 556.676C276.9 560.612 280.075 564.396 275.879 567.55C269.51 572.339 261.666 575.944 254.531 579.396C250.366 581.41 246.621 584.061 242.249 585.697C238.189 587.216 233.497 587.475 229.571 589.221C228.605 589.651 229.253 590.187 227.842 590.436C226.659 590.645 224.591 590.084 223.322 590.096C221.22 590.115 219.114 590.274 217.017 590.012C215.834 589.865 213.144 588.579 213.57 590.702C211.898 590.241 211.251 588.565 210.031 587.519C208.945 586.585 207.557 586.079 206.344 585.347C203.836 583.831 201.96 582.104 201.207 579.216C199.441 572.435 203.175 565.377 207.785 560.649C210.431 557.937 213.534 555.682 215.96 552.761C216.811 551.737 217.417 550.545 218.497 549.713C219.82 548.693 221.636 548.566 222.916 547.533C223.87 546.765 224.155 545.54 225.155 544.835C226.632 543.793 228.361 544.225 229.757 542.856C230.554 542.075 233.287 538.395 233.095 537.375C233.844 537.624 234.594 537.874 235.341 538.122C235.797 535.854 239.736 533.057 241.679 531.97C242.661 531.421 244.576 531.448 245.307 530.857C246.28 530.069 246.2 528.42 246.972 527.432C249.185 524.602 253.817 523.332 256.749 521.361C260.478 518.853 264.1 516.011 267.469 513.042C274.278 507.042 280.281 500.07 285.185 492.452C287.161 489.384 288.994 486.255 290.4 482.892C291.267 480.823 292.13 477.142 294.269 475.941C296.478 474.702 301.551 476.381 304.024 476.558C307.658 476.818 313.321 476.656 316.577 478.429C320.059 480.325 317.228 481.892 315.436 484.153C312.814 487.46 311.242 491.508 309.932 495.476C308.923 498.528 308.735 501.482 308.075 504.559C307.378 507.812 307.385 512.203 308.999 515.192C310.598 518.151 322.117 523.718 320.449 527.065ZM183.118 587.035C175.297 576.46 181.772 560.981 189.424 552.435C198.656 542.124 211.795 536.326 222.588 527.942C235.068 518.246 247.886 509.24 258.944 497.868C264.55 492.104 269.43 485.892 273.856 479.194C277.612 473.507 280.339 465.93 287.93 465.108C283.452 470.651 283.191 478.636 279.729 484.805C276.064 491.34 270.66 496.774 265.157 501.797C253.538 512.402 240.989 522.117 228.438 531.596C222.032 536.433 215.804 541.49 209.419 546.35C203.701 550.705 197.696 554.429 194.401 561.064C188.716 572.512 188.377 589.471 200.965 596.523C194.479 595.239 187.183 592.528 183.118 587.035ZM865.104 110.17C862.79 105.572 858.452 103.935 854.098 102.136C849.836 100.376 845.94 98.2073 841.212 97.644C839.11 97.3936 833.181 98.0155 832.905 94.9907C832.673 92.4701 838.868 89.9404 840.296 88.02C842.412 85.1737 843.851 80.5523 843.029 76.9573C842.251 73.548 838.912 72.4709 835.794 71.853C826.096 69.9328 815.785 71.3449 806.062 72.1341C807.252 70.4814 808.929 69.1258 809.884 67.1463L811.425 70.3286C812.303 68.5087 813.254 66.7226 814.347 65.0183C815.085 65.8422 815.825 66.6669 816.562 67.4908C815.335 63.212 819.463 63.2339 819.029 59.6272C818.861 58.2243 817.903 57.6097 817.669 56.482C817.208 54.2401 818.951 52.838 816.967 50.759C814.758 48.4437 811.147 49.3621 808.577 49.5782C808.254 49.606 807.786 50.2399 807.369 50.2914C806.791 50.364 806.458 49.574 805.744 49.6161C803.827 49.7284 802.138 51.2065 800.233 51.6555C791.406 53.737 782.575 57.4494 774.102 60.9152C765.477 64.4436 757.009 68.5517 749.489 74.0891C741.441 80.0155 735.627 87.6343 729.199 95.1406C726.178 98.6681 723.052 102.056 720.752 106.12C719.564 108.22 718.489 114.817 716.349 115.776C714.026 116.817 708.184 113.872 705.808 113.328C700.215 112.05 694.649 111.517 688.915 111.774C684.354 111.977 679.542 111.856 675.019 112.41C672.394 112.731 665.851 115.623 665.431 118.858C665.245 120.296 666.904 121.491 667.275 122.838C667.838 124.875 666.909 127.034 667.556 129.076C668.878 133.239 675.009 134.771 678.622 136.082C688.71 139.743 698.936 142.583 709.128 145.86C713.556 147.285 717.342 149.553 721.354 151.83C724.681 153.718 727.716 155.606 724.356 159.151C721.173 162.508 721.569 163.863 722.518 168.489C723.518 173.37 723.865 178.306 725.168 183.14C726.466 187.954 728.89 192.552 728.418 197.645C727.945 202.722 725.83 207.936 723.851 212.59C721.853 217.289 719.647 221.934 717.475 226.558C715.467 230.836 713.293 235.174 708.646 236.999C699.773 240.484 688.438 239.932 679.191 238.666C668.696 237.229 657.854 234.794 647.928 231.075C638.385 227.5 627.888 222.017 619.995 215.538C615.778 212.078 611.212 209.514 606.737 206.416C602.202 203.278 598.759 199.046 594.786 195.288C587 187.923 577.415 182.848 567.548 178.799C556.457 174.248 545.005 174.721 533.252 174.228C535.102 170.619 537.483 167.169 538.357 163.151C539.268 158.966 538.609 154.419 538.032 150.238C536.912 142.101 534.791 134.939 529.618 128.366C527.252 125.361 524.49 123.017 520.549 122.581C518.161 122.315 513.75 124.136 512.026 122.128C511.268 121.243 511.445 119.381 510.967 118.291C510.544 117.322 509.694 116.348 509.232 115.297C507.259 110.801 504.798 106.827 502.34 102.562C501.362 100.866 500.605 98.3628 499.272 96.9355C498.546 96.1591 497.613 95.8063 497.207 95.2383C496.448 94.1752 496.098 92.2321 495.465 91.0326C494.381 88.9798 493.003 87.0721 491.412 85.378C488.869 82.6702 485.595 80.2805 482.108 78.9316C480.172 78.1821 478.752 78.0048 476.73 78.1146C476.137 78.1466 475.478 78.4859 474.886 78.4413C473.467 78.334 473.689 77.8292 472.553 77.5946C464.948 76.022 454.749 78.2285 447.615 80.9372C440.101 83.7903 433.998 87.5524 429.432 94.3129C418.215 110.916 420.829 132.354 425.586 150.642C422.709 149.891 419.842 149.004 416.937 148.368C415.158 147.978 412.729 148.052 411.14 147.119C407.604 145.043 410.48 139.719 410.502 136.279C410.556 127.537 406.401 113.867 397.341 110.175C387.9 106.327 376.415 117.127 370.579 123.251C366.835 127.18 363.43 131.414 359.848 135.483C357.344 138.328 354.038 142.863 349.649 142.12C340.076 140.499 342.996 122.416 343.421 116.304C344.093 106.642 345.526 96.8248 345.534 87.1379C345.538 81.2495 344.512 73.3057 337.23 72.6152C327.207 71.6656 317.713 80.7177 311.868 87.6823C296.455 106.047 293.05 130.322 297.173 153.367C297.778 156.746 299.707 160.914 296.025 163.012C291.188 165.767 285.004 167.436 279.806 169.46C268.181 173.982 257.417 180.015 246.473 185.912C235.637 191.751 224.976 197.547 215.2 205.069C205.455 212.568 195.808 220.514 186.931 229.016C182.507 233.254 178.237 237.675 174.209 242.289C170.419 246.629 167.348 251.559 163.228 255.615C160.424 258.377 155.265 262.081 154.649 266.295C154.151 269.696 159.928 272.054 162.534 273.625C164.321 274.703 165.56 274.67 165.69 276.591C165.849 278.988 163.305 282.828 162.399 285.113C160.092 290.941 157.076 295.769 153.111 300.618C144.329 311.362 133.717 320.471 123.644 330.014C114.285 338.882 105.114 347.61 98.2535 358.613C96.5723 361.31 92.3892 366.846 96.3651 369.369C97.3937 370.023 100.551 370.539 101.598 369.838C102.897 368.969 102.238 367.659 103.772 366.787C103.388 369.717 116.787 363.993 117.83 363.462C120.645 362.029 123.192 360.35 126.07 359.066C127.759 358.312 127.964 357.263 129.271 356.422C129.97 355.972 129.979 356.575 130.913 356.296C131.755 356.043 133.732 355.947 134.36 355.142C134.377 355.118 135.063 353.169 134.48 353.572C136.762 351.994 138.112 354.382 136.742 356.624C132.69 363.248 127.568 368.122 125.98 376.082C125.404 378.974 124.42 384.342 126.198 386.978C126.263 387.074 126.861 386.794 126.934 386.897C127.002 386.994 127.654 387.894 127.922 388.15C129.493 389.642 129.392 390.307 132.013 390.245C133.176 390.217 135.495 390.069 136.559 389.547C137.36 389.155 137.751 388.188 138.367 387.845C138.989 387.495 138.916 387.313 139.5 387.11C139.62 387.067 139.85 388.083 140.078 388.041C141.327 387.807 141.865 387.066 142.926 386.47C145.984 384.751 148.982 382.861 151.893 381.13C154.824 379.388 157.014 376.959 159.932 374.936C163.034 372.787 165.57 371.139 167.956 368.156C169.607 366.09 171.578 365.338 172.686 364.321C174.002 363.114 176.27 358.453 178.39 357.899C179.356 357.646 180.128 358.495 180.657 358.147C181.252 357.756 180.604 357.007 180.902 356.566C181.46 355.744 181.529 355.607 182.478 354.853C183.692 353.889 185.185 353.63 186.204 352.373C187.338 350.974 187.493 349.406 188.888 348.096C192.243 344.944 195.229 341.623 198.784 338.568C197.411 346.17 196.05 353.717 197.115 361.448C198.145 368.941 201.347 372.296 207.632 376.098C209.016 376.936 210.467 378.154 211.954 378.747C212.857 379.108 214.217 378.893 214.89 379.158C217.17 380.056 216.394 381.893 216.706 383.962C217.191 387.171 220.161 389.64 222.077 392.139C223.689 394.241 226.596 399.024 229.292 399.75C231.727 400.405 234.025 397.577 236.053 396.372C239.11 394.557 242.442 393.256 245.666 391.772C251.965 388.874 258.05 385.417 264.278 382.352C267.122 380.952 269.995 380.383 273.006 379.479C276.623 378.393 279.708 376.316 283.177 374.899C289.413 372.351 295.389 369.31 301.587 366.635C314.417 361.097 328.409 357.293 339.826 348.985C344.991 345.227 351.64 344.826 356.731 341.174C362.036 337.366 358.782 331.544 356.511 326.871C350.305 314.107 346.601 300.85 338.058 289.221C333.619 283.179 329.518 276.936 325.646 270.513C322.222 264.828 322.291 258.39 321.432 251.969C320.857 247.678 320.318 243.368 319.614 239.096C319.169 236.38 317.73 232.959 319.471 230.498C321.341 227.853 325.785 226.728 328.593 225.332C332.083 223.599 335.462 221.733 339.083 220.265C347.358 216.911 356.074 214.59 364.754 212.541C367.342 211.93 378.422 207.561 380.531 210.121C377.94 211.84 377.184 214.962 376.022 217.638C374.292 221.626 372.506 225.425 371.244 229.603C368.635 238.244 366.417 247.022 364.29 255.789C362.178 264.494 359.661 273.268 359.015 282.236C358.684 286.814 358.911 291.394 358.902 295.976C358.894 300.867 357.873 305.663 358.055 310.566C358.177 313.826 358.452 317.743 360.375 320.524C362.157 323.101 365.187 323.388 367.828 324.766C371.312 326.585 372.676 327.36 372.708 331.317C372.747 335.928 372.447 340.456 372.881 345.065C374.394 361.112 379.823 380.156 390.659 392.545C391.38 393.369 412.405 419.703 414.732 415.848C416.336 417.733 418.732 418.422 420.705 420.066C423.806 422.649 426.848 424.714 429.412 427.913C434.079 433.734 438.046 440.556 439.213 448C440.215 454.407 439.613 462.066 435.974 467.618C432.324 473.188 424.521 476.843 418.631 479.585C410.888 483.189 403.031 483.594 394.624 482.691C390.476 482.245 386.36 481.549 382.242 480.891C380.529 480.618 378.531 480.617 376.909 479.975C375.17 479.289 374.581 478.529 372.844 478.445C371.547 478.381 370.839 478.666 369.468 478.382C367.771 478.03 365.928 477.39 364.236 476.958C362.354 476.477 360.81 475.792 359.077 474.91C357.472 474.092 355.663 473.934 354.118 473.16C351.455 471.825 350.633 469.594 347.031 470.831C343.228 472.136 344.023 475.403 341.595 477.642C339.438 479.634 336.766 477.793 334.618 476.61C331.459 474.867 328.177 473.417 324.813 472.098C321.178 470.674 317.466 469.435 313.684 468.453C309.547 467.381 305.003 467.169 301.018 465.606C297.516 464.235 296.009 461.581 293.472 459.102C290.803 456.494 287.183 455.501 283.484 455.732C276.748 456.156 272.147 463.388 268.589 468.41C258.647 482.44 247.658 494.393 234.369 505.415C228.019 510.678 220.862 515.156 214.721 520.62C212.132 522.926 210.251 525.086 207.184 526.803C203.155 529.057 199.499 531.885 195.647 534.428C180.582 544.369 169.532 558.852 173.698 577.764C175.573 586.276 179.319 592.251 186.318 597.373C189.495 599.698 192.403 601.632 196.451 601.497C200.272 601.371 203.644 601.239 201.393 596.722C204.245 597.599 206.632 599.764 209.746 600.873C213.334 602.148 218.001 602.944 221.81 603.021C227.909 603.145 235.083 599.952 240.424 598.598C241.917 598.221 244.794 597.601 246.495 596.207C247.848 595.1 247.555 593.788 249.603 593.262C252.286 592.572 253.308 593.378 255.878 591.764C259.606 589.42 263.649 588.028 267.517 585.868C272.728 582.958 277.737 579.676 282.898 576.679C283.586 578.562 287.631 589.756 290.128 584.36C292.302 579.662 285.245 575.641 289.535 570.885C293.628 566.35 294.483 571.118 298.453 573.223C303.964 576.147 303.137 570.686 301.535 567.453C300.894 566.16 299.547 564.209 299.944 562.701C300.709 559.788 303.082 561.497 304.948 561.794C307.886 562.264 310.261 561.46 312.468 559.503C314.307 557.87 317.35 556.461 318.462 554.309C319.018 553.232 319.115 551.753 319.578 550.609C320.188 549.101 320.623 549.467 320.845 547.597C320.633 546.629 320.548 545.651 320.591 544.66C321.074 544.563 321.555 544.466 322.036 544.368C322.051 544.3 322.085 542.413 321.891 542.694C322.341 542.045 323.308 541.771 323.864 540.869C324.375 540.041 323.899 538.453 324.105 537.474C324.521 535.494 325.656 533.895 326.583 532.13C328.544 540.372 327.977 548.968 329.851 557.215C331.391 563.985 334.897 570.054 338.987 575.606C340.883 578.179 343.393 580.005 345.377 582.45C347.056 584.519 347.896 586.341 350.375 587.564C352.024 588.376 353.879 588.795 355.578 589.496C356.664 589.946 359.138 592.012 360.157 591.975C359.269 592.008 361.826 592.086 361.233 591.985C361.277 591.993 360.931 590.88 361.239 590.898C364.945 594.384 368.818 594.392 373.108 596.558C375.073 597.551 375.808 597.489 377.903 597.856C380.617 598.332 382.901 599.869 385.5 600.033C389.501 600.285 394.008 600.82 398.179 600.673C399.314 600.632 401.447 599.906 402.337 600.891C402.925 601.542 401.81 606.246 401.739 607.323C401.006 618.62 402.526 630.48 407.326 640.817C411.306 649.387 415.55 659.527 422.589 666.072C430.392 673.326 441.322 678.439 451.758 680.396C463.312 682.561 474.766 680.94 486.356 680.267C498.116 679.583 508.996 677.927 520.337 674.542C530.883 671.394 540.873 667.291 550.965 662.964C557.828 660.021 566.531 655.786 562.933 646.853C562.063 644.693 558.689 638.688 555.704 641.651C553.062 644.273 557.478 649.234 559.476 650.899C544.414 661.329 526.138 664.779 508.515 668.474C498.837 670.502 489.302 670.417 479.458 670.446C471.115 670.469 462.774 670.707 454.486 669.55C446.988 668.503 438.258 666.54 432.678 661.097C426.841 655.401 421.317 648.601 417.333 641.496C412.962 633.698 411.902 625.267 411.548 616.474C411.362 611.844 411.153 607.158 411.641 602.539C411.995 599.187 413.719 598.788 414.574 596.14C416.549 598.888 417.85 597.872 420.276 596.266C421.843 600.613 421.145 605.13 420.875 609.613C420.613 613.98 421.199 618.408 421.737 622.744C422.651 630.117 426.208 637.806 430.721 643.741C432.761 646.425 435.819 647.558 438.585 649.411C442.111 651.774 445.768 653.974 449.449 656.094C456.381 660.087 463.947 663.501 471.76 664.103C474.497 664.314 476.488 665.73 479.749 665.532C481.685 665.414 483.636 664.756 485.568 664.808C487.504 664.861 489.168 665.476 491.156 665.333C499.422 664.739 507.942 662.05 516.126 660.572C524.987 658.974 533.902 657.252 542.36 654.096C546.025 652.728 549.052 650.964 551.098 647.526C552.559 645.07 552.176 640.667 554.899 639.198C553.116 636.913 553.779 636.51 555.319 634.467C556.038 633.515 558.36 630.994 555.544 631.04C556.4 627.359 554.968 623.8 554.358 620.2C554.096 618.645 554.167 616.291 553.198 614.952C552.633 614.172 551.692 614.157 551.187 613.582C550.665 613.57 550.256 613.354 549.963 612.935C549.929 612.32 550.218 611.945 550.832 611.811C550.69 610.594 551.597 611.031 550.69 609.129C549.453 606.531 547.106 604.27 544.884 602.504C542.991 600.999 541.597 598.327 539.411 597.525C536.567 596.479 533.585 595.344 530.596 594.374C523.821 592.174 517.106 591.334 509.996 592.553C506.741 593.112 503.533 593.797 500.389 594.796C498.55 595.382 495.736 596.961 494.106 595.258C493.547 594.674 492.378 589.712 492.451 589.176C492.743 587.023 497.169 586.155 498.783 585.403C501.251 584.255 505.82 583.028 507.387 580.75C508.044 579.795 507.302 575.739 507.41 575.666C508.445 574.973 512.79 584.823 513.973 585.496C515.684 586.467 520.492 585.183 522.261 584.99C527.539 584.414 532.904 584.087 538.073 582.837C547.986 580.439 557.719 576.731 567.365 573.454C585.717 567.221 603.433 559.005 619.931 548.801C627.636 544.034 635.289 537.942 641.153 531.021C643.797 527.9 645.665 524.198 648.365 521.137C651.48 517.606 650.498 514.421 651.894 509.998C654.721 501.046 658.154 492.914 659.693 483.533C661.277 473.874 661.931 464.012 661.492 454.233C660.624 434.905 659.679 416.581 651.126 398.822C643.288 382.547 633.13 366.646 621.054 353.172C618.247 350.041 615.281 347.057 611.833 344.622C608.12 341.998 604.034 339.941 600.674 336.842C597.916 334.3 595.61 331.305 592.725 328.891C589.184 325.93 584.973 324.621 580.826 322.729C576.85 320.918 573.224 318.56 569.159 316.911C566.685 315.908 564.179 314.982 561.599 314.282C559.694 313.764 557.162 313.731 555.419 312.748C552.661 311.193 549.84 306.666 548.038 304.109C545.41 300.378 543.986 296.038 542.736 291.7C541.214 286.424 539.8 281.114 538.313 275.827C537.804 274.021 535.904 267.734 539.693 269.26C540.802 269.706 541.842 271.69 542.696 272.537C544.314 274.146 546.312 275.583 548.32 276.677C551.558 278.441 554.931 280.566 558.036 281.782C560.773 282.853 563.588 284.954 566.14 286.465C566.527 286.694 566.64 287.484 567.14 287.705C568.316 288.223 569.099 286.793 570.21 287.143C571.727 287.622 571.976 289.041 572.818 290.171C574.039 291.808 574.671 291.939 576.536 292.781C578.61 293.719 580.133 295.571 582.154 296.49C584.612 297.605 590.018 296.74 590.388 300.584C594.205 298.107 598.994 302.916 601.377 305.411C603.775 301.754 608.024 306.036 611.653 304.822C609.645 307.594 610.01 307.319 613.179 307.661C615.854 307.952 617.456 309.716 620.1 310.741C621.931 311.45 623.954 312.644 625.858 313.144C627.657 313.617 629.02 312.556 630.587 312.822C631.668 313.004 632.695 313.932 633.723 314.186C635.026 314.508 636.882 314.899 638.355 315.246C640.146 315.669 641.93 315.28 643.717 315.617C645.802 316.009 647.603 317.242 649.72 317.642C652.081 318.088 654.535 317.79 656.882 318.359C659.021 318.877 660.322 319.473 662.537 319.494C665.842 319.527 669.531 319.961 672.794 319.59C674.532 319.393 675.495 318.518 677.462 319.373C678.773 319.944 679.559 321.706 681.347 320.899C679.46 320.148 681.117 317.223 683.197 319.463C683.69 318.207 684.007 317.506 685.376 317.093C685.308 318.323 685.105 319.557 686.684 319.815C686.805 318.959 686.927 318.104 687.048 317.248C690.481 319.843 691.294 320.759 694.533 317.592C694.447 318.629 694.006 319.802 695.068 320.537C695.747 319.415 696.426 318.294 697.106 317.173C698.254 320.791 703.732 319.543 706.388 318.901C707.418 318.653 710.263 318.26 710.935 317.421C711.401 316.84 711.344 316.385 711.517 316.028C711.67 315.712 709.924 314.933 711.41 314.479C712.529 314.135 713.4 316.572 714.714 316.475C715.886 316.388 716.36 314.418 717.203 314.019C717.283 313.982 717.855 314.814 718.252 314.632C718.868 314.349 719.219 313.603 719.899 313.338C721.372 312.766 723.278 312.908 724.927 312.23C727.02 311.369 729.128 310.959 731.264 310.249C733.972 309.351 735.201 307.585 737.398 306.14C737.914 305.801 738.451 305.999 738.957 305.759C739.639 305.436 740.353 304.679 741.165 304.323C743.71 303.202 745.884 302.439 748.299 300.893C750.451 299.513 753.293 298.495 755.21 296.839C756.805 295.462 757.666 293.451 759.27 292.049C761.574 290.036 767.527 287.511 766.561 283.579C770.415 284.164 771.358 281.687 772.772 278.954C774.117 276.355 776.875 275.576 778.678 273.205C779.457 272.181 780.712 270.761 781.142 269.591C781.399 268.896 780.756 268.17 780.929 267.695C781.729 265.511 784.813 264.557 786.241 262.587C788.057 260.081 788.64 256.912 790.156 254.338C790.454 253.831 791.188 253.531 791.472 252.991C791.655 252.644 791.274 251.783 791.496 251.443C792.024 250.634 792.855 250.354 793.386 249.605C794.67 247.79 794.905 245.211 796.059 243.153C796.343 242.647 797.333 241.231 797.458 240.93C797.875 239.917 797.749 239.251 797.964 238.124C798.028 237.785 798.688 235.823 798.823 235.543C799.247 234.668 799.657 234.539 800.305 233.578C801.926 231.173 802.932 227.396 803.065 224.476C803.122 223.238 802.707 221.958 803.159 220.777C803.548 219.755 804.748 219.125 805.201 218.055C806.388 215.25 806.194 211.284 806.521 208.284C806.876 205.013 807.93 201.789 808.22 198.543C808.362 196.971 807.619 195.579 807.674 194.099C807.736 192.404 808.623 192.087 808.964 190.677C809.353 189.066 808.783 187.211 809.131 185.484C809.455 183.877 809.926 182.39 810.06 180.742C810.41 176.45 809.916 171.96 809.729 167.667C809.656 166 809.433 164.262 809.876 162.631C810.233 161.318 811.692 159.85 811.645 158.426C811.495 154.027 807.951 157.834 805.915 157.533C803.546 157.182 803.11 151.905 802.487 149.903C800.961 145.014 799.436 140.124 797.911 135.236C805.18 133.356 812.74 133.898 820.162 133.39C827.455 132.892 834.575 131.321 841.647 129.551C847.618 128.058 854.151 127.191 859.516 124.001C864.021 121.324 867.737 115.398 865.104 110.17Z" fill="white"/>
<path fill-rule="evenodd" clip-rule="evenodd" d="M159.135 204.821C162.043 203.32 161.309 201.246 163.445 199.318C175.396 188.534 189.423 179.117 203.48 171.341C218.29 163.148 234.907 159.68 250.045 152.42C252.081 151.443 254.726 149.916 253.967 147.196C253.079 144.018 250.031 145.48 247.858 146.231C240.618 148.73 232.912 149.671 225.569 151.868C209.893 156.555 195.213 164.639 181.935 174.101C174.209 179.604 166.809 185.689 160.211 192.524C157.782 195.04 154.542 197.975 153.91 201.599C153.128 206.085 155.798 206.543 159.135 204.821Z" fill="white"/>
<path fill-rule="evenodd" clip-rule="evenodd" d="M204.405 486.802C204.335 482.838 199.988 484.279 197.751 484.812C188.658 486.979 180.53 488.638 172.483 493.657C157.548 502.971 146.233 517.12 138.912 532.778C137.936 534.862 134.012 541.465 137.157 543.431C139.231 544.728 140.49 540.952 141.264 539.55C145.207 532.417 150.487 526.102 155.796 519.904C167.582 506.142 181.751 497.407 198.702 491.03C200.782 490.248 204.457 489.684 204.405 486.802Z" fill="white"/>
<path fill-rule="evenodd" clip-rule="evenodd" d="M706.961 389.441C703.817 383.158 698.73 375.405 691.693 372.817C687.799 371.385 685.495 373.754 686.651 377.714C687.57 380.862 690.638 382.4 692.929 384.488C698.824 389.862 702.454 397.884 704.607 405.334C706.883 413.209 707.337 421.755 707.296 429.908C707.275 434.213 706.118 437.953 705.489 442.143C705.243 443.79 704.822 447.42 706.728 448.448C710.952 450.727 712.903 438.828 713.335 436.54C714.924 428.101 714.77 420.33 713.432 411.904C712.208 404.199 710.49 396.489 706.961 389.441Z" fill="white"/>
<path fill-rule="evenodd" clip-rule="evenodd" d="M694.878 87.5047C696.597 85.2038 695.343 81.9827 695.855 79.3592C696.39 76.6095 697.989 73.8279 699.34 71.4226C702.262 66.2298 705.519 61.1303 708.99 56.2868C712.575 51.285 716.947 47.0232 720.757 42.2177C722.045 40.592 724.328 38.2683 723.771 36.3116C722.87 33.1436 720.908 34.6876 719.334 36.0153C710.736 43.2751 703.165 52.2263 697.049 61.6279C694.147 66.0899 691.404 70.9764 690.444 76.2695C689.948 79.0031 689.943 81.8555 690.76 84.532C691.273 86.2141 692.813 90.2696 694.878 87.5047Z" fill="white"/>
<path fill-rule="evenodd" clip-rule="evenodd" d="M165.011 474.75C169.319 474.354 173.652 474.213 177.971 473.993C181.167 473.83 184.763 474.026 187.697 472.497C190.65 470.96 189.366 468.656 186.911 468.315C185.5 468.118 183.118 469.064 181.606 469.129C179.968 469.199 178.322 469.149 176.683 469.156C171.892 469.173 166.73 469.137 162.112 470.718C160.603 471.234 158.318 472.031 157.697 473.744C156.37 477.406 163.013 474.933 165.011 474.75Z" fill="white"/>
<path fill-rule="evenodd" clip-rule="evenodd" d="M202.736 139.648C208.993 138.904 215.041 137.042 221.205 135.855C227.066 134.727 228.064 130.139 221.125 130.345C218.795 130.414 196.333 134.645 202.736 139.648Z" fill="white"/>
<path fill-rule="evenodd" clip-rule="evenodd" d="M719.756 369.755C715.553 368.71 717.727 373.34 719.028 374.772C721.434 377.419 722.748 379.401 723.463 382.93C723.88 384.985 723.489 389.624 725.245 391.195C726.975 392.742 727.094 391.715 727.402 389.805C728.267 384.423 726.537 371.442 719.756 369.755Z" fill="white"/>
<path fill-rule="evenodd" clip-rule="evenodd" d="M673.608 76.779C674.799 75.5257 673.522 70.0755 673.663 68.4782C673.834 66.5428 674.296 64.905 674.877 63.0889C675.159 62.2082 676.579 59.0999 675.814 58.1347C674.755 56.7969 672.993 59.0576 672.435 59.9475C670.623 62.8437 670.199 67.6728 670.501 70.9341C670.609 72.1147 671.328 79.1766 673.608 76.779Z" fill="white"/>
<path fill-rule="evenodd" clip-rule="evenodd" d="M426.102 536.376C426.3 533.288 429.293 531.148 429.302 527.865C429.313 524.177 426.813 522.579 423.7 524.977C421.823 526.422 420.361 529.944 417.822 530.405C412.73 531.332 410.733 522.25 405.717 523.301C401.374 524.21 403.656 531.616 404.966 534.116C406.355 536.765 408.877 538.623 408.056 541.881C407.081 545.751 403.736 547.981 405.038 552.398C407.455 560.605 412.702 552.931 415.858 550.353C418.106 548.514 419.465 548.841 421.649 550.643C424.64 553.112 426.926 554.789 430.554 556.452C433.753 557.92 436.839 558.943 436.938 554.021C437.017 550.149 434.073 546.296 431.488 543.67C429.343 541.49 425.882 539.812 426.102 536.376Z" fill="white"/>
<path fill-rule="evenodd" clip-rule="evenodd" d="M370.046 524.132C366.303 520.17 361.575 530.277 358.55 531.395C353.647 533.207 352.518 523.492 348.005 523.797C344.491 524.035 344.769 529.035 345.534 531.315C346.357 533.77 348.821 535.776 349.234 538.292C349.869 542.146 342.524 549.852 347.649 553.575C352.025 556.754 353.655 546.013 359.125 550.395C361.81 552.546 369.325 560.552 373.048 556.568C377.447 551.86 366.983 543.82 365.073 540.239C362.489 535.391 375.531 529.939 370.046 524.132Z" fill="white"/>
<path fill-rule="evenodd" clip-rule="evenodd" d="M460.725 386.46C459.651 385.99 457.917 386.768 456.755 386.718C455.508 386.666 454.209 386.103 452.979 385.895C450.306 385.441 445.605 386.097 443.709 383.732C441.773 381.318 443.244 376.474 442.417 373.538C441.967 371.941 441.447 369.972 439.282 370.684C436.769 371.51 436.83 376.091 436.53 378.1C436.088 381.065 435.732 383.327 432.731 384.381C430.508 385.162 428.171 384.769 426.374 386.581C425.058 387.909 424.17 390.334 425.201 392.069C426.748 394.676 430.099 393.326 432.423 394.15C435.968 395.407 435.125 401.158 435.852 404.46C436.317 406.582 437.34 412.523 440.409 412.427C444.593 412.298 442.968 403.951 442.736 401.514C442.501 399.043 441.941 396.946 444.719 396.177C447.066 395.529 450.344 396.733 452.768 396.718C455.829 396.699 459.437 395.936 461.284 393.212C462.339 391.654 463.007 387.46 460.725 386.46Z" fill="white"/>
<path fill-rule="evenodd" clip-rule="evenodd" d="M614.474 489.193C621.126 489.763 617.095 497.903 621.509 501.138C625.721 504.225 626.287 495.705 626.286 493.272C626.284 487.379 633.501 489.557 637.896 488.581C641.646 487.75 645.74 483.883 641.262 480.589C638.03 478.211 632.671 479.314 628.918 478.685C623.833 477.831 625.344 474.46 625.231 470.575C625.191 469.151 624.697 464.073 622.844 463.673C619.451 462.94 619.249 472.398 619.021 474.198C618.053 481.812 612.785 477.173 608.601 480.99C603.13 485.98 610.51 488.853 614.474 489.193Z" fill="white"/>
<path fill-rule="evenodd" clip-rule="evenodd" d="M298.09 347.227C287.697 355.685 275.895 354.472 266.383 345.367C262.361 341.517 259.931 337.636 260.291 332.002C260.613 326.932 262.112 321.329 266.202 317.905C269.645 315.019 276.139 313.984 280.499 313.58C286.609 313.015 292.077 316.319 296.304 320.447C299.985 324.041 304.288 328.621 304.855 333.957C305.452 339.572 302.23 343.855 298.09 347.227ZM299.671 313.568C290.348 304.654 273.816 305.549 264.191 313.678C253.388 322.803 251.541 339.944 261.923 349.941C272.864 360.476 287.308 359.34 298.89 350.6C305.102 345.914 308.473 339.899 309.339 332.182C310.155 324.888 304.769 318.442 299.671 313.568Z" fill="white"/>
<path fill-rule="evenodd" clip-rule="evenodd" d="M479.935 160.13C478.889 163.506 479.613 167.102 479.799 170.541C476.844 168.706 475.004 165.432 471.831 163.911C470.309 168.085 477.892 180.025 482.664 176.112C487.031 172.53 483.808 162.536 479.935 160.13Z" fill="white"/>
<path fill-rule="evenodd" clip-rule="evenodd" d="M495.443 180.715C493.09 181.586 490.904 181.345 488.583 181.791C487.053 182.085 486.855 181.221 486.656 182.961C486.234 186.675 492.268 188.111 494.986 188.059C498.303 187.995 501.939 185.78 501.618 182.174C501.285 178.418 498.001 179.769 495.443 180.715Z" fill="white"/>
<path fill-rule="evenodd" clip-rule="evenodd" d="M497.37 165.107C496.303 164.145 493.843 160.51 492.038 161.132C490.655 161.609 491.632 163.25 492.038 164.071C493.557 167.151 496.539 169.771 498.921 172.242C497.157 172.864 493.759 173.265 494.656 175.961C495.481 178.437 499.22 178.056 501.011 177.014C507.148 173.441 500.44 167.875 497.37 165.107Z" fill="white"/>
<path fill-rule="evenodd" clip-rule="evenodd" d="M503.566 159.261C503.986 160.962 504.211 162.567 503.285 164.161L498.174 155.059C494.063 156.735 501.273 169.849 505.473 168.397C508.378 167.394 506.983 161.23 506.524 159.29C506.279 158.252 505.694 154.951 504.245 154.616C501.393 153.957 503.255 158.007 503.566 159.261Z" fill="white"/>
<path fill-rule="evenodd" clip-rule="evenodd" d="M292.702 342.853C290.332 341.117 286.403 345.181 283.897 345.196C278.831 345.223 281.589 339.323 278.419 337.411C276.766 336.413 269.844 337.42 270.938 333.29C271.595 330.806 274.167 332.599 275.576 331.081C277.344 329.179 274.824 327.662 273.255 326.881C273.944 325.969 277.91 325.569 278.907 326.199C280.626 327.289 280.527 330.559 282.105 332.242C284.153 329.647 283.041 326.385 285.222 324.055C286.069 323.149 288.546 322.469 287.583 320.853C287.025 319.915 284.578 320.225 283.741 319.479C283.011 318.829 283.047 316.73 281.868 316.556C279.941 316.271 279.988 319.194 279.409 320.039C277.668 322.576 270.018 321.701 273.189 326.847C271.076 325.801 265.314 324.973 266.432 328.627C266.718 329.562 267.808 330.134 268.078 331.199C268.312 332.121 267.796 333.437 267.748 334.363C267.656 336.12 267.514 338.174 268.823 339.587C270.622 341.529 273.027 340.116 274.956 340.961C277.586 342.111 276.638 344.502 278.025 346.594C279.841 349.331 282.634 348.49 285.205 347.662C288.271 346.674 288.755 346.585 290.998 349.121C292.024 347.805 294.834 344.414 292.702 342.853Z" fill="white"/>
<path fill-rule="evenodd" clip-rule="evenodd" d="M296.825 332.169C294.351 331.714 295.326 324.395 292.316 327.576C291.187 328.767 292.343 331.093 291.084 332.37C290.238 333.228 289.165 332.722 288.319 333.285C287.558 333.79 287.366 334.758 286.918 335.496C288.509 336.207 289.739 336.299 291.438 335.989C291.438 337.26 290.588 341.001 292.771 340.728C294.802 340.473 294.228 336.718 295.263 335.552C296.312 334.365 300.543 334.915 300.936 333.248C301.423 331.183 297.906 332.367 296.825 332.169Z" fill="white"/>
</svg>
